<?xml version="1.0" encoding="UTF-8"?>
<svg xmlns="http://www.w3.org/2000/svg" xmlns:xlink="http://www.w3.org/1999/xlink" width="120px" height="px" viewBox="0 0 120 60" version="1.1">
<g id="surface1">
<path style=" stroke:none;fill-rule:nonzero;fill:rgb(65.098039%,76.470588%,2.745098%);fill-opacity:1;" d="M 111.257812 12.597656 L 104.105469 12.59375 C 103.328125 12.59375 102.695312 13.226562 102.695312 14.011719 L 102.695312 15.011719 L 103.191406 15.011719 C 106.417969 15.011719 107.621094 15.546875 107.621094 18.5 L 107.621094 22.695312 L 111.253906 22.695312 C 112.035156 22.695312 112.667969 22.0625 112.667969 21.28125 L 112.671875 14.015625 C 112.671875 13.230469 112.039062 12.597656 111.257812 12.597656 M 72.222656 23.878906 C 71.890625 23.460938 71.269531 23.402344 70.644531 23.402344 L 70.171875 23.402344 C 68.613281 23.402344 68.003906 23.886719 67.65625 25.386719 L 63.324219 43.457031 C 62.785156 45.679688 62.023438 46.085938 60.722656 46.085938 C 59.132812 46.085938 58.496094 45.703125 57.859375 43.449219 L 52.953125 25.378906 C 52.546875 23.867188 51.949219 23.402344 50.390625 23.402344 L 49.972656 23.402344 C 49.339844 23.402344 48.714844 23.460938 48.394531 23.882812 C 48.070312 24.304688 48.179688 24.933594 48.34375 25.554688 L 53.304688 43.78125 C 54.234375 47.269531 55.339844 50.15625 59.472656 50.15625 C 60.242188 50.15625 60.957031 50.050781 61.550781 49.847656 C 60.296875 53.804688 59.023438 55.546875 55.261719 55.933594 C 54.5 56 54.003906 56.109375 53.726562 56.480469 C 53.441406 56.863281 53.507812 57.417969 53.609375 57.910156 L 53.710938 58.378906 C 53.9375 59.457031 54.320312 60.128906 55.527344 60.128906 C 55.65625 60.128906 55.792969 60.121094 55.9375 60.109375 C 61.550781 59.742188 64.558594 56.707031 66.320312 49.640625 L 72.324219 25.539062 C 72.464844 24.921875 72.550781 24.292969 72.222656 23.878906 M 42.019531 37.761719 L 42.019531 41.410156 C 42.019531 44.382812 40.917969 46.105469 35.304688 46.105469 C 31.59375 46.105469 29.789062 44.757812 29.789062 41.984375 C 29.789062 38.945312 31.597656 37.761719 36.242188 37.761719 Z M 35.304688 22.636719 C 32.242188 22.636719 30.324219 23.023438 29.59375 23.167969 C 28.304688 23.449219 27.765625 23.804688 27.765625 25.273438 L 27.765625 25.695312 C 27.765625 26.269531 27.851562 26.667969 28.035156 26.949219 C 28.246094 27.277344 28.589844 27.441406 29.050781 27.441406 C 29.277344 27.441406 29.539062 27.40625 29.851562 27.328125 C 30.585938 27.140625 32.9375 26.761719 35.511719 26.761719 C 40.132812 26.761719 42.019531 28.046875 42.019531 31.195312 L 42.019531 34.003906 L 36.191406 34.003906 C 28.699219 34.003906 25.210938 36.539062 25.210938 41.984375 C 25.210938 47.265625 28.8125 50.175781 35.355469 50.175781 C 43.128906 50.175781 46.597656 47.519531 46.597656 41.566406 L 46.597656 31.195312 C 46.597656 25.4375 42.902344 22.636719 35.304688 22.636719 M 20.617188 26.128906 C 20.617188 30.464844 19.511719 32.816406 13.691406 32.816406 L 4.734375 32.816406 L 4.734375 21.625 C 4.734375 20.074219 5.308594 19.496094 6.855469 19.496094 L 13.691406 19.496094 C 18.078125 19.496094 20.617188 20.582031 20.617188 26.128906 Z M 13.691406 15.003906 L 5.964844 15.003906 C 1.839844 15.003906 -0.00390625 16.851562 -0.00390625 20.996094 L -0.00390625 47.605469 C -0.00390625 49.207031 0.507812 49.722656 2.105469 49.722656 L 2.625 49.722656 C 4.222656 49.722656 4.734375 49.207031 4.734375 47.605469 L 4.734375 37.253906 L 13.691406 37.253906 C 21.648438 37.253906 25.351562 33.71875 25.351562 26.128906 C 25.351562 18.539062 21.648438 15.003906 13.691406 15.003906 M 111.957031 5.097656 L 108.347656 5.09375 C 107.953125 5.09375 107.636719 4.773438 107.636719 4.378906 L 107.636719 0.714844 C 107.636719 0.320312 107.957031 0 108.351562 0 L 111.957031 0 C 112.351562 0 112.671875 0.320312 112.671875 0.714844 L 112.667969 4.382812 C 112.667969 4.777344 112.347656 5.097656 111.957031 5.097656 M 119.035156 12.601562 L 113.722656 12.597656 C 113.144531 12.597656 112.671875 12.125 112.671875 11.546875 L 112.675781 6.148438 C 112.675781 5.566406 113.144531 5.097656 113.726562 5.097656 L 119.035156 5.097656 C 119.617188 5.097656 120.085938 5.570312 120.085938 6.152344 L 120.085938 11.546875 C 120.085938 12.128906 119.613281 12.601562 119.035156 12.601562 M 104.101562 22.695312 C 103.324219 22.695312 102.691406 22.058594 102.691406 21.277344 L 102.695312 15.011719 L 102.171875 15.011719 C 98.941406 15.011719 97.742188 15.546875 97.742188 18.5 L 97.742188 25.40625 C 97.742188 25.421875 97.738281 25.4375 97.738281 25.449219 L 97.738281 26.964844 C 97.738281 27.015625 97.734375 27.066406 97.734375 27.121094 L 97.734375 36.773438 C 97.734375 37.953125 97.507812 38.890625 97.042969 39.621094 C 96.160156 40.980469 94.417969 41.597656 91.628906 41.601562 C 88.839844 41.597656 87.097656 40.980469 86.214844 39.621094 C 85.75 38.890625 85.519531 37.953125 85.519531 36.773438 L 85.519531 27.121094 C 85.519531 27.066406 85.519531 27.015625 85.519531 26.964844 L 85.519531 25.449219 C 85.519531 25.4375 85.515625 25.421875 85.515625 25.40625 L 85.515625 18.5 C 85.515625 15.546875 84.3125 15.011719 81.085938 15.011719 L 80.066406 15.011719 C 76.835938 15.011719 75.636719 15.546875 75.636719 18.5 L 75.636719 36.773438 C 75.636719 39.710938 76.296875 42.199219 77.574219 44.207031 C 80.039062 48.09375 84.816406 50.164062 91.605469 50.164062 C 91.613281 50.164062 91.621094 50.164062 91.628906 50.164062 C 91.636719 50.164062 91.644531 50.164062 91.652344 50.164062 C 98.441406 50.164062 103.21875 48.09375 105.683594 44.207031 C 106.960938 42.199219 107.621094 39.710938 107.621094 36.773438 L 107.621094 22.695312 L 104.101562 22.695312 "/>
</g>
</svg>
